<svg width="800" height="500" viewBox="0 0 800 500" fill="none" xmlns="http://www.w3.org/2000/svg">
  <rect width="800" height="500" fill="#2A2A29"/>
  <rect x="50" y="40" width="700" height="40" rx="8" fill="#3C3C3B"/>
  <circle cx="75" cy="60" r="6" fill="#ff5f57"/>
  <circle cx="95" cy="60" r="6" fill="#febc2e"/>
  <circle cx="115" cy="60" r="6" fill="#28c840"/>
  <rect x="200" y="50" width="300" height="20" rx="10" fill="#1A1A19"/>
  <rect x="50" y="100" width="700" height="360" rx="0" fill="#1A1A19"/>
  <rect x="80" y="130" width="250" height="30" rx="4" fill="#B1ED5133"/>
  <rect x="80" y="180" width="400" height="15" rx="2" fill="#3C3C3B"/>
  <rect x="80" y="205" width="350" height="15" rx="2" fill="#3C3C3B"/>
  <rect x="80" y="230" width="300" height="15" rx="2" fill="#3C3C3B"/>
  <rect x="80" y="280" width="150" height="40" rx="8" fill="#B1ED51"/>
  <rect x="500" y="130" width="220" height="190" rx="8" fill="#3C3C3B"/>
  <g transform="translate(570, 200)" stroke="#B1ED5166" stroke-width="4" stroke-linecap="round" fill="none">
    <polyline points="0,0 -18,20 0,40"/>
    <line x1="26" y1="-4" x2="14" y2="44"/>
    <polyline points="40,0 58,20 40,40"/>
  </g>
</svg>
